<svg class="h-7 w-7" width="256" height="256" viewBox="0 0 256 256" fill="none" role="img" aria-label="uxcommunity"><defs><linearGradient id="uxc-bg-uxcommunity" x1="128" y1="0" x2="128" y2="256" gradientUnits="userSpaceOnUse"><stop offset="0%" stop-color="#30323A"></stop><stop offset="38%" stop-color="#24262D"></stop><stop offset="100%" stop-color="#1D1F26"></stop></linearGradient><radialGradient id="uxc-gloss-uxcommunity" cx="0" cy="0" r="1" gradientUnits="userSpaceOnUse" gradientTransform="translate(105 15) rotate(70) scale(210 180)"><stop offset="0%" stop-color="#FFFFFF" stop-opacity="0.12"></stop><stop offset="45%" stop-color="#FFFFFF" stop-opacity="0.035"></stop><stop offset="100%" stop-color="#FFFFFF" stop-opacity="0"></stop></radialGradient><linearGradient id="uxc-depth-uxcommunity" x1="128" y1="110" x2="128" y2="256" gradientUnits="userSpaceOnUse"><stop offset="0%" stop-color="#000000" stop-opacity="0"></stop><stop offset="100%" stop-color="#000000" stop-opacity="0.16"></stop></linearGradient><linearGradient id="uxc-bubble-uxcommunity" x1="128" y1="47" x2="128" y2="181" gradientUnits="userSpaceOnUse"><stop offset="0%" stop-color="#FFFFFF"></stop><stop offset="72%" stop-color="#FCFCFC"></stop><stop offset="100%" stop-color="#E8E9ED"></stop></linearGradient><filter id="uxc-shadow-uxcommunity" x="35" y="35" width="190" height="165" filterUnits="userSpaceOnUse"><feDropShadow dx="0" dy="4" stdDeviation="4" flood-color="#000000" flood-opacity="0.25"></feDropShadow></filter><clipPath id="uxc-clip-uxcommunity"><path d="M128 2 C77 2 44 8 25 26 C7 44 2 77 2 128 C2 179 7 212 26 230 C45 249 78 254 128 254 C178 254 211 249 230 230 C249 211 254 178 254 128 C254 77 249 44 230 26 C211 8 178 2 128 2Z"></path></clipPath></defs><g clip-path="url(#uxc-clip-uxcommunity)"><rect width="256" height="256" fill="url(#uxc-bg-uxcommunity)"></rect><rect width="256" height="256" fill="url(#uxc-gloss-uxcommunity)"></rect><rect width="256" height="256" fill="url(#uxc-depth-uxcommunity)"></rect></g><path d="M128 47 C85 47 52 70 52 106 C52 126 63 142 83 152 C84 162 81 170 75 177 C74 179 76 181 79 181 C93 180 104 174 111 167 C116 168 122 168 128 168 C171 168 204 145 204 106 C204 70 171 47 128 47Z" fill="url(#uxc-bubble-uxcommunity)" filter="url(#uxc-shadow-uxcommunity)"></path></svg>
